<mxfile host="app.diagrams.net" modified="2023-04-12T14:12:43.707Z" agent="Mozilla/5.0 (Windows NT 10.0; Win64; x64; rv:109.0) Gecko/20100101 Firefox/111.0" etag="ntyGsBX5pc5fITWOg2ju" version="21.1.6">
  <diagram name="Page-1" id="3BT8E8Qf8juynzQdaEIh">
    <mxGraphModel dx="857" dy="480" grid="1" gridSize="10" guides="1" tooltips="1" connect="1" arrows="1" fold="1" page="1" pageScale="1" pageWidth="850" pageHeight="1100" math="0" shadow="0">
      <root>
        <mxCell id="0" />
        <mxCell id="1" parent="0" />
        <mxCell id="UeBNBbXchmcM4uTUlLKT-9" style="edgeStyle=orthogonalEdgeStyle;rounded=0;orthogonalLoop=1;jettySize=auto;html=1;exitX=1;exitY=0.5;exitDx=0;exitDy=0;" edge="1" parent="1" source="UeBNBbXchmcM4uTUlLKT-1" target="UeBNBbXchmcM4uTUlLKT-2">
          <mxGeometry relative="1" as="geometry" />
        </mxCell>
        <mxCell id="UeBNBbXchmcM4uTUlLKT-27" style="edgeStyle=orthogonalEdgeStyle;rounded=1;orthogonalLoop=1;jettySize=auto;html=1;exitX=0;exitY=1;exitDx=0;exitDy=0;entryX=0;entryY=0;entryDx=0;entryDy=0;shadow=0;" edge="1" parent="1" source="UeBNBbXchmcM4uTUlLKT-1" target="UeBNBbXchmcM4uTUlLKT-1">
          <mxGeometry relative="1" as="geometry">
            <mxPoint x="150" y="140" as="targetPoint" />
            <Array as="points">
              <mxPoint x="140" y="188" />
              <mxPoint x="140" y="132" />
            </Array>
          </mxGeometry>
        </mxCell>
        <mxCell id="UeBNBbXchmcM4uTUlLKT-1" value="Wait A" style="ellipse;whiteSpace=wrap;html=1;aspect=fixed;" vertex="1" parent="1">
          <mxGeometry x="160" y="120" width="80" height="80" as="geometry" />
        </mxCell>
        <mxCell id="UeBNBbXchmcM4uTUlLKT-11" style="edgeStyle=orthogonalEdgeStyle;rounded=0;orthogonalLoop=1;jettySize=auto;html=1;exitX=0.5;exitY=1;exitDx=0;exitDy=0;entryX=0.5;entryY=0;entryDx=0;entryDy=0;" edge="1" parent="1" source="UeBNBbXchmcM4uTUlLKT-2" target="UeBNBbXchmcM4uTUlLKT-4">
          <mxGeometry relative="1" as="geometry" />
        </mxCell>
        <mxCell id="UeBNBbXchmcM4uTUlLKT-21" style="edgeStyle=orthogonalEdgeStyle;rounded=1;orthogonalLoop=1;jettySize=auto;html=1;exitX=1;exitY=0;exitDx=0;exitDy=0;entryX=1;entryY=1;entryDx=0;entryDy=0;" edge="1" parent="1" source="UeBNBbXchmcM4uTUlLKT-2" target="UeBNBbXchmcM4uTUlLKT-2">
          <mxGeometry relative="1" as="geometry">
            <mxPoint x="480" y="131.90476190476193" as="targetPoint" />
            <Array as="points">
              <mxPoint x="460" y="132" />
              <mxPoint x="460" y="188" />
            </Array>
          </mxGeometry>
        </mxCell>
        <mxCell id="UeBNBbXchmcM4uTUlLKT-2" value="Recv A" style="ellipse;whiteSpace=wrap;html=1;aspect=fixed;" vertex="1" parent="1">
          <mxGeometry x="360" y="120" width="80" height="80" as="geometry" />
        </mxCell>
        <mxCell id="UeBNBbXchmcM4uTUlLKT-10" style="edgeStyle=orthogonalEdgeStyle;rounded=0;orthogonalLoop=1;jettySize=auto;html=1;exitX=0;exitY=0.5;exitDx=0;exitDy=0;" edge="1" parent="1" source="UeBNBbXchmcM4uTUlLKT-4" target="UeBNBbXchmcM4uTUlLKT-5">
          <mxGeometry relative="1" as="geometry" />
        </mxCell>
        <mxCell id="UeBNBbXchmcM4uTUlLKT-4" value="&lt;div&gt;Wait B&lt;/div&gt;" style="ellipse;whiteSpace=wrap;html=1;aspect=fixed;" vertex="1" parent="1">
          <mxGeometry x="360" y="280" width="80" height="80" as="geometry" />
        </mxCell>
        <mxCell id="UeBNBbXchmcM4uTUlLKT-12" style="edgeStyle=orthogonalEdgeStyle;rounded=0;orthogonalLoop=1;jettySize=auto;html=1;exitX=0.5;exitY=0;exitDx=0;exitDy=0;entryX=0.5;entryY=1;entryDx=0;entryDy=0;" edge="1" parent="1" source="UeBNBbXchmcM4uTUlLKT-5" target="UeBNBbXchmcM4uTUlLKT-1">
          <mxGeometry relative="1" as="geometry" />
        </mxCell>
        <mxCell id="UeBNBbXchmcM4uTUlLKT-26" style="edgeStyle=orthogonalEdgeStyle;rounded=1;orthogonalLoop=1;jettySize=auto;html=1;exitX=0;exitY=1;exitDx=0;exitDy=0;" edge="1" parent="1" source="UeBNBbXchmcM4uTUlLKT-5" target="UeBNBbXchmcM4uTUlLKT-5">
          <mxGeometry relative="1" as="geometry">
            <mxPoint x="140" y="290" as="targetPoint" />
            <Array as="points">
              <mxPoint x="140" y="348" />
              <mxPoint x="140" y="290" />
            </Array>
          </mxGeometry>
        </mxCell>
        <mxCell id="UeBNBbXchmcM4uTUlLKT-5" value="Recv B" style="ellipse;whiteSpace=wrap;html=1;aspect=fixed;" vertex="1" parent="1">
          <mxGeometry x="160" y="280" width="80" height="80" as="geometry" />
        </mxCell>
        <mxCell id="UeBNBbXchmcM4uTUlLKT-8" style="edgeStyle=orthogonalEdgeStyle;rounded=0;orthogonalLoop=1;jettySize=auto;html=1;exitX=0.5;exitY=1;exitDx=0;exitDy=0;" edge="1" parent="1" source="UeBNBbXchmcM4uTUlLKT-6" target="UeBNBbXchmcM4uTUlLKT-1">
          <mxGeometry relative="1" as="geometry" />
        </mxCell>
        <mxCell id="UeBNBbXchmcM4uTUlLKT-6" value="Reset" style="rounded=0;whiteSpace=wrap;html=1;" vertex="1" parent="1">
          <mxGeometry x="170" y="70" width="60" height="20" as="geometry" />
        </mxCell>
        <mxCell id="UeBNBbXchmcM4uTUlLKT-15" value="&lt;div&gt;&lt;div&gt;Type = OP &lt;br&gt;&lt;/div&gt;&lt;/div&gt;&lt;div&gt;OPR = SUB&lt;/div&gt;&lt;div&gt;NEG &amp;lt;= ~NEG&lt;br&gt;&lt;/div&gt;" style="text;html=1;strokeColor=none;fillColor=none;align=center;verticalAlign=middle;whiteSpace=wrap;rounded=0;" vertex="1" parent="1">
          <mxGeometry x="50" y="145" width="90" height="30" as="geometry" />
        </mxCell>
        <mxCell id="UeBNBbXchmcM4uTUlLKT-17" value="&lt;div&gt;Type = OP &lt;/div&gt;&lt;div&gt;OPR = SUB&lt;/div&gt;&lt;div&gt;NEG &amp;lt;= ~NEG&lt;br&gt;&lt;/div&gt;" style="text;html=1;strokeColor=none;fillColor=none;align=center;verticalAlign=middle;whiteSpace=wrap;rounded=0;" vertex="1" parent="1">
          <mxGeometry x="460" y="305" width="90" height="30" as="geometry" />
        </mxCell>
        <mxCell id="UeBNBbXchmcM4uTUlLKT-18" style="edgeStyle=orthogonalEdgeStyle;rounded=1;orthogonalLoop=1;jettySize=auto;html=1;exitX=1;exitY=0;exitDx=0;exitDy=0;entryX=1;entryY=1;entryDx=0;entryDy=0;" edge="1" parent="1" source="UeBNBbXchmcM4uTUlLKT-4" target="UeBNBbXchmcM4uTUlLKT-4">
          <mxGeometry relative="1" as="geometry">
            <Array as="points">
              <mxPoint x="460" y="291" />
              <mxPoint x="460" y="349" />
            </Array>
          </mxGeometry>
        </mxCell>
        <mxCell id="UeBNBbXchmcM4uTUlLKT-19" value="&lt;div&gt;Type = Num&lt;/div&gt;&lt;div&gt;LoadA &amp;lt;= 1&lt;/div&gt;&lt;div&gt;NextDigit &amp;lt;= 1&lt;br&gt;&lt;/div&gt;" style="text;html=1;strokeColor=none;fillColor=none;align=center;verticalAlign=middle;whiteSpace=wrap;rounded=0;" vertex="1" parent="1">
          <mxGeometry x="260" y="120" width="80" height="30" as="geometry" />
        </mxCell>
        <mxCell id="UeBNBbXchmcM4uTUlLKT-22" value="&lt;div&gt;Type = Num&lt;/div&gt;&lt;div&gt;LoadB &amp;lt;= 1&lt;/div&gt;&lt;div&gt;NextDigit &amp;lt;= 1&lt;br&gt;&lt;/div&gt;" style="text;html=1;strokeColor=none;fillColor=none;align=center;verticalAlign=middle;whiteSpace=wrap;rounded=0;" vertex="1" parent="1">
          <mxGeometry x="260" y="280" width="80" height="30" as="geometry" />
        </mxCell>
        <mxCell id="UeBNBbXchmcM4uTUlLKT-23" value="&lt;div&gt;Type = Num&lt;/div&gt;&lt;div&gt;LoadA &amp;lt;= 1&lt;/div&gt;&lt;div&gt;NextDigit &amp;lt;= 1&lt;br&gt;&lt;/div&gt;" style="text;html=1;strokeColor=none;fillColor=none;align=center;verticalAlign=middle;whiteSpace=wrap;rounded=0;" vertex="1" parent="1">
          <mxGeometry x="460" y="145" width="80" height="30" as="geometry" />
        </mxCell>
        <mxCell id="UeBNBbXchmcM4uTUlLKT-29" value="&lt;div&gt;Type = Num&lt;/div&gt;&lt;div&gt;LoadB &amp;lt;= 1&lt;/div&gt;&lt;div&gt;NextDigit &amp;lt;= 1&lt;br&gt;&lt;/div&gt;" style="text;html=1;strokeColor=none;fillColor=none;align=center;verticalAlign=middle;whiteSpace=wrap;rounded=0;" vertex="1" parent="1">
          <mxGeometry x="60" y="305" width="80" height="30" as="geometry" />
        </mxCell>
        <mxCell id="UeBNBbXchmcM4uTUlLKT-30" value="&lt;div&gt;&lt;div&gt;Type = OP &lt;br&gt;&lt;/div&gt;&lt;/div&gt;&lt;div&gt;LoadOp &amp;lt;= 1&lt;/div&gt;&lt;div&gt;Clear &amp;lt;= 1&lt;br&gt;&lt;/div&gt;&lt;div&gt;NEG &amp;lt;= 0&lt;br&gt;&lt;/div&gt;" style="text;html=1;strokeColor=none;fillColor=none;align=center;verticalAlign=middle;whiteSpace=wrap;rounded=0;" vertex="1" parent="1">
          <mxGeometry x="400" y="220" width="80" height="40" as="geometry" />
        </mxCell>
        <mxCell id="UeBNBbXchmcM4uTUlLKT-31" value="&lt;div&gt;&lt;div&gt;Type = END &lt;br&gt;&lt;/div&gt;&lt;/div&gt;&lt;div&gt;Clear &amp;lt;= 1&lt;br&gt;&lt;/div&gt;&lt;div&gt;NEG &amp;lt;= 0&lt;br&gt;&lt;/div&gt;" style="text;html=1;strokeColor=none;fillColor=none;align=center;verticalAlign=middle;whiteSpace=wrap;rounded=0;" vertex="1" parent="1">
          <mxGeometry x="120" y="220" width="80" height="40" as="geometry" />
        </mxCell>
        <mxCell id="UeBNBbXchmcM4uTUlLKT-33" value="&lt;div&gt;NEG &amp;lt;= 0&lt;br&gt;&lt;/div&gt;&lt;div&gt;Clear &amp;lt;= 1&lt;/div&gt;" style="text;html=1;strokeColor=none;fillColor=none;align=center;verticalAlign=middle;whiteSpace=wrap;rounded=0;" vertex="1" parent="1">
          <mxGeometry x="120" y="100" width="90" height="10" as="geometry" />
        </mxCell>
      </root>
    </mxGraphModel>
  </diagram>
</mxfile>
